<svg width="20.000000" height="20.000000" viewBox="0 0 20 20" fill="none" xmlns="http://www.w3.org/2000/svg" xmlns:xlink="http://www.w3.org/1999/xlink">
	<desc>
			Created with Pixso.
	</desc>
	<defs/>
	<path id="check-circle-Bold" d="M14.7 7.29C15.09 7.68 15.09 8.31 14.7 8.7L9.7 13.7C9.51 13.9 9.25 14 9 14C8.74 14 8.48 13.9 8.29 13.7L5.29 10.7C4.9 10.31 4.9 9.68 5.29 9.29C5.68 8.9 6.31 8.9 6.7 9.29L9 11.58L13.29 7.29C13.68 6.9 14.31 6.9 14.7 7.29ZM20 10C20 15.51 15.51 20 10 20C4.48 20 0 15.51 0 10C0 4.48 4.48 0 10 0C15.51 0 20 4.48 20 10ZM18 10C18 5.58 14.41 2 10 2C5.58 2 2 5.58 2 10C2 14.41 5.58 18 10 18C14.41 18 18 14.41 18 10Z" fill="#FFFFFF" fill-opacity="0.800000" fill-rule="evenodd"/>
</svg>
