<svg width="20.000000" height="20.000000" viewBox="0 0 20 20" fill="none" xmlns="http://www.w3.org/2000/svg" xmlns:xlink="http://www.w3.org/1999/xlink">
	<desc>
			Created with Pixso.
	</desc>
	<defs/>
	<path id="exclamation-circle-Bold" d="M10 0C4.48 0 0 4.48 0 10C0 15.51 4.48 20 10 20C15.51 20 20 15.51 20 10C20 4.48 15.51 0 10 0ZM10 18C5.58 18 2 14.41 2 10C2 5.58 5.58 2 10 2C14.41 2 18 5.58 18 10C18 14.41 14.41 18 10 18ZM11 14C11 14.55 10.55 15 10 15C9.44 15 9 14.55 9 14C9 13.44 9.44 13 10 13C10.55 13 11 13.44 11 14ZM11 6L11 10C11 10.55 10.55 11 10 11C9.44 11 9 10.55 9 10L9 6C9 5.44 9.44 5 10 5C10.55 5 11 5.44 11 6Z" fill="#FFFFFF" fill-opacity="0.800000" fill-rule="evenodd"/>
</svg>
