<svg width="93.376587" height="26.903320" viewBox="0 0 93.3766 26.9033" fill="none" xmlns="http://www.w3.org/2000/svg" xmlns:xlink="http://www.w3.org/1999/xlink">
	<desc>
			Created with Pixso.
	</desc>
	<defs/>
	<path id="finio" d="M80.64 0C87.75 0 93.37 4.71 93.37 13.45C93.37 22.19 87.75 26.9 80.64 26.9C73.48 26.9 67.9 22.14 67.9 13.45C67.9 4.71 73.48 0 80.64 0ZM7.11 26.54L0 26.54L0 0.36L18.41 0.36L18.41 6.09L7.11 6.09L7.11 10.59L17.28 10.59L17.28 16.31L7.11 16.31L7.11 26.54ZM21.01 0.36L28.12 0.36L28.12 26.54L21.01 26.54L21.01 0.36ZM47.04 0.36L54.14 0.36L54.14 26.54L48.22 26.54L38.75 12.78L38.61 12.78L38.61 26.54L31.5 26.54L31.5 0.36L37.53 0.36L46.83 14.06L47.04 14.06L47.04 0.36ZM57.52 0.36L64.63 0.36L64.63 26.54L57.52 26.54L57.52 0.36ZM80.64 20.71C84.17 20.71 86.06 18.15 86.06 13.45C86.06 8.74 84.17 6.18 80.64 6.18C77.11 6.18 75.21 8.74 75.21 13.45C75.21 18.15 77.11 20.71 80.64 20.71Z" fill="#FFFFFF" fill-opacity="1.000000" fill-rule="evenodd"/>
</svg>
