<svg width="20.000000" height="16.000000" viewBox="0 0 20 16" fill="none" xmlns="http://www.w3.org/2000/svg" xmlns:xlink="http://www.w3.org/1999/xlink">
	<desc>
			Created with Pixso.
	</desc>
	<defs/>
	<path id="menu-Bold" d="M0 1C0 0.44 0.44 0 1 0L14 0C14.55 0 15 0.44 15 1C15 1.55 14.55 2 14 2L1 2C0.44 2 0 1.55 0 1ZM19 7L1 7C0.44 7 0 7.44 0 8C0 8.55 0.44 9 1 9L19 9C19.55 9 20 8.55 20 8C20 7.44 19.55 7 19 7ZM10 14L1 14C0.44 14 0 14.44 0 15C0 15.55 0.44 16 1 16L10 16C10.55 16 11 15.55 11 15C11 14.44 10.55 14 10 14Z" fill="#FFFFFF" fill-opacity="1.000000" fill-rule="evenodd"/>
</svg>
